:FULLY-SPECIFIED
:FORCE-ALL-JOINTS-BE-3DOF
:DEGREES
227
root 8.81838 16.4598 -5.1709 8.88936 -3.07288 -3.59852
lfemur -47.3445 5.33368 -19.6792
ltibia 32.8617 0 0
lfoot -11.7046 8.2317 0
ltoes -8.51992 0 0
rfemur 11.061 3.37984 25.5872
rtibia 19.4485 0 0
rfoot -2.10716 6.07724 0
rtoes -11.5251 0 0
lowerback -6.41668 2.60388 1.1004
upperback -2.04014 3.33606 2.53423
thorax 1.35278 1.68688 2.23707
lowerneck -17.13 -6.353 -14.3586
upperneck 15.8562 -8.07392 15.0494
head 9.01808 -3.23251 6.52438
lclavicle 2.53876e-15 -3.50409e-15 0
lhumerus -49.9527 -6.36773 92.0857
lradius 23.3301 0 0
lwrist 0.303875 0 0
lhand -9.80741 -23.4511 0
lfingers 7.12502 0 0
lthumb 16.1694 5.89793 0
rclavicle 2.53876e-15 -3.50409e-15 0
rhumerus -40.8391 9.75582 -84.2071
rradius 47.268 0 0
rwrist -24.8292 0 0
rhand -31.3734 -25.909 0
rfingers 7.12502 0 0
rthumb -4.64348 -55.8295 0
228
root 8.84524 16.4548 -5.00737 8.97423 -3.29509 -3.52112
lfemur -47.3655 5.62546 -19.9084
ltibia 33.5645 0 0
lfoot -11.4103 8.05144 0
ltoes -8.00007 0 0
rfemur 11.3316 3.2674 25.2486
rtibia 20.0405 0 0
rfoot -1.17052 6.1209 0
rtoes -11.706 0 0
lowerback -6.42319 2.60752 1.01516
upperback -2.12413 3.34907 2.48235
thorax 1.26706 1.69411 2.23065
lowerneck -17.1909 -6.33544 -14.3498
upperneck 15.9221 -8.04989 15.0431
head 9.04624 -3.21841 6.52566
lclavicle 8.40704e-16 -3.7455e-15 0
lhumerus -49.9146 -6.17416 91.8563
lradius 23.078 0 0
lwrist -0.242321 0 0
lhand -9.6002 -23.3853 0
lfingers 7.12502 0 0
lthumb 16.3689 5.94704 0
rclavicle 8.40704e-16 -3.7455e-15 0
rhumerus -41.2077 9.66605 -84.3961
rradius 46.8525 0 0
rwrist -24.643 0 0
rhand -31.2325 -25.7057 0
rfingers 7.12502 0 0
rthumb -4.50749 -55.6289 0
229
root 8.8721 16.4497 -4.84384 9.05722 -3.51221 -3.44146
lfemur -47.3647 5.91615 -20.1382
ltibia 34.265 0 0
lfoot -11.1171 7.87216 0
ltoes -7.48307 0 0
rfemur 11.5778 3.15395 24.9086
rtibia 20.6401 0 0
rfoot -0.247453 6.15738 0
rtoes -11.8906 0 0
lowerback -6.42889 2.60837 0.928388
upperback -2.20697 3.35842 2.43082
thorax 1.18236 1.69947 2.22521
lowerneck -17.2533 -6.31734 -14.3403
upperneck 15.9895 -8.025 15.0355
head 9.07504 -3.20395 6.52652
lclavicle -8.44958e-16 -3.97567e-15 0
lhumerus -49.864 -5.98682 91.6275
lradius 22.8289 0 0
lwrist -0.783667 0 0
lhand -9.39417 -23.3191 0
lfingers 7.12502 0 0
lthumb 16.5672 5.9965 0
rclavicle -8.44958e-16 -3.97567e-15 0
rhumerus -41.5771 9.57607 -84.5832
rradius 46.4347 0 0
rwrist -24.456 0 0
rhand -31.0913 -25.5021 0
rfingers 7.12502 0 0
rthumb -4.37112 -55.4282 0
230
root 8.89896 16.4446 -4.68032 9.13791 -3.72362 -3.35971
lfemur -47.342 6.20452 -20.3683
ltibia 34.9594 0 0
lfoot -10.8267 7.69432 0
ltoes -6.97066 0 0
rfemur 11.798 3.03986 24.5682
rtibia 21.2457 0 0
rfoot 0.658118 6.18605 0
rtoes -12.0783 0 0
lowerback -6.43379 2.60633 0.840278
upperback -2.28828 3.364 2.37982
thorax 1.09908 1.7029 2.22079
lowerneck -17.317 -6.29867 -14.3298
upperneck 16.0584 -7.99922 15.0266
head 9.10444 -3.18912 6.52694
lclavicle -2.5098e-15 -4.19405e-15 0
lhumerus -49.8 -5.80664 91.3997
lradius 22.5837 0 0
lwrist -1.31806 0 0
lhand -9.19063 -23.253 0
lfingers 7.12502 0 0
lthumb 16.7632 6.04598 0
rclavicle -2.5098e-15 -4.19405e-15 0
rhumerus -41.9459 9.48616 -84.7674
rradius 46.0163 0 0
rwrist -24.2691 0 0
rhand -30.9503 -25.2991 0
rfingers 7.12502 0 0
rthumb -4.23493 -55.228 0
231
root 8.92582 16.4396 -4.51679 9.21589 -3.92871 -3.27602
lfemur -47.2972 6.48932 -20.5981
ltibia 35.6438 0 0
lfoot -10.5411 7.51834 0
ltoes -6.46461 0 0
rfemur 11.9908 2.92552 24.2286
rtibia 21.8556 0 0
rfoot 1.54225 6.20631 0
rtoes -12.2688 0 0
lowerback -6.43786 2.60132 0.751022
upperback -2.36768 3.36565 2.3295
thorax 1.01762 1.70432 2.21744
lowerneck -17.3819 -6.27939 -14.3184
upperneck 16.1289 -7.97249 15.0162
head 9.13444 -3.17391 6.52688
lclavicle -4.14539e-15 -4.40009e-15 0
lhumerus -49.7216 -5.63459 91.1736
lradius 22.3434 0 0
lwrist -1.8434 0 0
lhand -8.99085 -23.1874 0
lfingers 7.12502 0 0
lthumb 16.9555 6.09516 0
rclavicle -4.14539e-15 -4.40009e-15 0
rhumerus -42.3129 9.39661 -84.9482
rradius 45.5992 0 0
rwrist -24.0832 0 0
rhand -30.81 -25.0972 0
rfingers 7.12502 0 0
rthumb -4.09949 -55.0289 0
232
root 8.95268 16.4345 -4.35326 9.29076 -4.12688 -3.19054
lfemur -47.2299 6.76934 -20.8274
ltibia 36.3144 0 0
lfoot -10.2619 7.34467 0
ltoes -5.96667 0 0
rfemur 12.1549 2.81129 23.8907
rtibia 22.468 0 0
rfoot 2.40102 6.21753 0
rtoes -12.4617 0 0
lowerback -6.4411 2.59328 0.660811
upperback -2.44478 3.36327 2.28003
thorax 0.938397 1.70367 2.21522
lowerneck -17.4478 -6.25944 -14.306
upperneck 16.2009 -7.94477 15.0044
head 9.16499 -3.15832 6.5263
lclavicle -5.74331e-15 -4.59323e-15 0
lhumerus -49.6281 -5.47161 90.9497
lradius 22.109 0 0
lwrist -2.35758 0 0
lhand -8.79615 -23.1228 0
lfingers 7.12502 0 0
lthumb 17.1429 6.14369 0
rclavicle -5.74331e-15 -4.59323e-15 0
rhumerus -42.6766 9.30771 -85.1249
rradius 45.1851 0 0
rwrist -23.899 0 0
rhand -30.6711 -24.897 0
rfingers 7.12502 0 0
rthumb -3.96536 -54.8315 0
233
root 8.97954 16.4295 -4.18974 9.36211 -4.31751 -3.10343
lfemur -47.14 7.04333 -21.0556
ltibia 36.9673 0 0
lfoot -9.99098 7.17375 0
ltoes -5.4786 0 0
rfemur 12.2889 2.69757 23.5557
rtibia 23.0811 0 0
rfoot 3.23047 6.21911 0
rtoes -12.6566 0 0
lowerback -6.44351 2.58212 0.569839
upperback -2.51923 3.35671 2.23155
thorax 0.861818 1.70087 2.21418
lowerneck -17.5147 -6.23879 -14.2925
upperneck 16.2746 -7.916 14.9909
head 9.19609 -3.14234 6.52518
lclavicle -7.29514e-15 -4.77292e-15 0
lhumerus -49.5183 -5.31865 90.7285
lradius 21.8814 0 0
lwrist -2.8585 0 0
lhand -8.60779 -23.0596 0
lfingers 7.12502 0 0
lthumb 17.3242 6.19125 0
rclavicle -7.29514e-15 -4.77292e-15 0
rhumerus -43.0356 9.21972 -85.2968
rradius 44.7759 0 0
rwrist -23.7175 0 0
rhand -30.5342 -24.6992 0
rfingers 7.12502 0 0
rthumb -3.83313 -54.6364 0
234
root 9.0064 16.4244 -4.02621 9.42952 -4.50001 -3.01485
lfemur -47.0273 7.31006 -21.2824
ltibia 37.5987 0 0
lfoot -9.7302 7.00601 0
ltoes -5.00216 0 0
rfemur 12.3912 2.58472 23.2246
rtibia 23.6935 0 0
rfoot 4.02669 6.21041 0
rtoes -12.8532 0 0
lowerback -6.44508 2.56775 0.478298
upperback -2.59062 3.34584 2.18423
thorax 0.78829 1.69585 2.21437
lowerneck -17.5823 -6.21739 -14.2778
upperneck 16.3498 -7.88614 14.9758
head 9.2277 -3.12595 6.52348
lclavicle -8.79244e-15 -4.9386e-15 0
lhumerus -49.3914 -5.17668 90.5107
lradius 21.6617 0 0
lwrist -3.34406 0 0
lhand -8.42709 -22.9983 0
lfingers 7.12502 0 0
lthumb 17.4981 6.2375 0
rclavicle -8.79244e-15 -4.9386e-15 0
rhumerus -43.3886 9.13295 -85.463
rradius 44.3733 0 0
rwrist -23.5395 0 0
rhand -30.3997 -24.5044 0
rfingers 7.12502 0 0
rthumb -3.70335 -54.4443 0
235
root 9.03327 16.4193 -3.86268 9.4926 -4.67375 -2.92495
lfemur -46.8914 7.56829 -21.5074
ltibia 38.2048 0 0
lfoot -9.48132 6.84189 0
ltoes -4.53911 0 0
rfemur 12.4606 2.47314 22.8984
rtibia 24.3032 0 0
rfoot 4.78573 6.19084 0
rtoes -13.0509 0 0
lowerback -6.44579 2.55011 0.386379
upperback -2.6586 3.33055 2.13823
thorax 0.718221 1.68855 2.21584
lowerneck -17.6506 -6.1952 -14.262
upperneck 16.4266 -7.85515 14.9589
head 9.25979 -3.10916 6.52117
lclavicle -1.02268e-14 -5.08972e-15 0
lhumerus -49.2464 -5.04663 90.2967
lradius 21.4507 0 0
lwrist -3.81216 0 0
lhand -8.25532 -22.9392 0
lfingers 7.12502 0 0
lthumb 17.6634 6.28211 0
rclavicle -1.02268e-14 -5.08972e-15 0
rhumerus -43.7342 9.04766 -85.6231
rradius 43.9792 0 0
rwrist -23.3658 0 0
rhand -30.2685 -24.3132 0
rfingers 7.12502 0 0
rthumb -3.57659 -54.2557 0
236
root 9.06013 16.4143 -3.69916 9.55093 -4.83813 -2.83389
lfemur -46.7322 7.8168 -21.7301
ltibia 38.7816 0 0
lfoot -9.24617 6.68184 0
ltoes -4.0912 0 0
rfemur 12.4955 2.36319 22.5783
rtibia 24.9086 0 0
rfoot 5.50366 6.15977 0
rtoes -13.2495 0 0
lowerback -6.44565 2.52911 0.294277
upperback -2.72277 3.31069 2.0937
thorax 0.652018 1.67888 2.21864
lowerneck -17.7195 -6.17218 -14.2449
upperneck 16.5051 -7.82297 14.9402
head 9.29235 -3.09194 6.51821
lclavicle -1.15898e-14 -5.22573e-15 0
lhumerus -49.0825 -4.92946 90.087
lradius 21.2495 0 0
lwrist -4.2607 0 0
lhand -8.09379 -22.8829 0
lfingers 7.12502 0 0
lthumb 17.8189 6.32475 0
rclavicle -1.15898e-14 -5.22573e-15 0
rhumerus -44.0711 8.96415 -85.7761
rradius 43.5953 0 0
rwrist -23.1973 0 0
rhand -30.1409 -24.1262 0
rfingers 7.12502 0 0
rthumb -3.45343 -54.0712 0
